<svg id="Capa_1" enable-background="new 0 0 512.313 512.313" height="512" viewBox="0 0 512.313 512.313" width="512" xmlns="http://www.w3.org/2000/svg"><g><g><path d="m187.016 411.806h73.568v77.075h-73.568z" fill="#e1d3ce"/><path d="m256.19 322.662h-89.906l-27.573 29.278v58.05h129v-58.05z" fill="#f3eae6"/><path d="m265.811 161.91-32.04-43.58c-2.8-3.8-7.24-6.05-11.96-6.05h-37.2c-4.72 0-9.16 2.25-11.95 6.05l-32.05 43.58c-1.23 1.68-1.9 3.72-1.9 5.8v101.41l19.127 27.8h91.8l18.073-27.8v-101.41c0-2.08-.66-4.12-1.9-5.8z" fill="#fef0ae"/><path d="m217.514 322.662h-51.23l-27.573 29.278v58.05h51.23v-58.05z" fill="#efe2dd"/><path d="m189.941 167.71c0-2.08.67-4.12 1.9-5.8l32.05-43.58c1.321-1.799 3.044-3.242 4.96-4.273-2.131-1.145-4.554-1.777-7.039-1.777h-37.2c-4.72 0-9.16 2.25-11.95 6.05l-32.05 43.58c-1.23 1.68-1.9 3.72-1.9 5.8v101.41l19.127 27.8h51.23l-19.127-27.8v-101.41z" fill="#fee97d"/><path d="m138.711 269.12h129v82.82h-129z" fill="#e1d3ce"/><path d="m138.711 269.12h51.23v82.82h-51.23z" fill="#cdbfba"/><g><path d="m123.696 396.988c-6.975 0-12.63 5.654-12.63 12.629v12.503c0 6.975 5.654 12.63 12.63 12.63h166.07v-37.762z" fill="#f9f3f1"/><path d="m157.604 422.12v-12.503c0-6.975 5.654-12.629 12.63-12.629h-46.537c-6.975 0-12.63 5.654-12.63 12.629v12.503c0 6.975 5.654 12.63 12.63 12.63h46.537c-6.976 0-12.63-5.655-12.63-12.63z" fill="#f3eae6"/><path d="m144.735 504.813c-5.706 0-10.331-4.625-10.331-10.331v-11.202c0-5.706 4.625-10.331 10.331-10.331h115.849v19.582c0 6.783-5.499 12.282-12.282 12.282z" fill="#f9f3f1"/><path d="m175.317 494.481v-11.202c0-5.706 4.625-10.331 10.331-10.331h-40.914c-5.706 0-10.331 4.625-10.331 10.331v11.202c0 5.706 4.625 10.331 10.331 10.331h40.914c-5.705.001-10.331-4.625-10.331-10.331z" fill="#f3eae6"/><path d="m368.14 308.931 11.525 8.048c13.523 9.443 21.58 24.896 21.58 41.389v114.444c0 17.673-14.327 32.001-32.001 32.001h-102.634c-17.673 0-32.001-14.327-32.001-32.001v-114.444c0-16.493 8.057-31.946 21.58-41.389l11.525-8.048 22.051-16.008h59.627z" fill="#a6e7f0"/><path d="m272.624 358.047c.103-16.165 13.475-29.116 29.641-29.116h62.644c7.813 0 15.064-2.566 20.914-6.885-1.898-1.831-3.96-3.533-6.157-5.067l-11.525-8.047-18.748-16.008h-21.613-32.465-5.549l-22.051 16.008-11.524 8.047c-13.523 9.443-21.581 24.896-21.581 41.39v114.444c0 17.673 14.327 32 32 32h38.013c-17.673 0-32.001-14.327-32.001-32v-114.445c.001-.107.001-.214.002-.321z" fill="#6bd9e7"/><path d="m364.909 308.931h-94.363c-8.421 0-15.248-6.827-15.248-15.248v-23.075c0-8.421 6.827-15.248 15.248-15.248h94.363c8.421 0 15.248 6.827 15.248 15.248v23.075c0 8.421-6.827 15.248-15.248 15.248z" fill="#f9f3f1"/><path d="m293.024 293.683v-23.075c0-8.421 6.827-15.248 15.248-15.248h-37.726c-8.421 0-15.248 6.827-15.248 15.248v23.075c0 8.421 6.827 15.248 15.248 15.248h37.726c-8.421 0-15.248-6.827-15.248-15.248z" fill="#f3eae6"/><path d="m359.544 453.849h-83.633c-3.75 0-6.79-3.04-6.79-6.79v-54.411c0-3.75 3.04-6.79 6.79-6.79h83.633c3.75 0 6.79 3.04 6.79 6.79v54.411c0 3.75-3.04 6.79-6.79 6.79z" fill="#f9f3f1"/></g></g><g><path d="m138.71 204.319c4.142 0 7.5-3.357 7.5-7.5v-29.105c0-.493.155-.964.446-1.359l32.046-43.581c1.376-1.872 3.584-2.989 5.907-2.989h37.207c2.323 0 4.532 1.117 5.908 2.99l32.045 43.58c.291.396.445.866.445 1.359v57.744c0 4.143 3.357 7.5 7.5 7.5s7.5-3.357 7.5-7.5v-57.744c0-3.713-1.162-7.256-3.361-10.246l-32.044-43.579c-4.191-5.701-10.918-9.104-17.994-9.104h-11.103v-97.285c0-4.143-3.358-7.5-7.5-7.5s-7.5 3.357-7.5 7.5v97.284h-11.104c-7.076 0-13.802 3.403-17.993 9.104l-32.047 43.583c-2.198 2.99-3.359 6.533-3.359 10.243v29.105c.001 4.143 3.359 7.5 7.501 7.5z"/><path d="m401.246 427.354c4.143 0 7.5-3.357 7.5-7.5v-61.485c0-18.93-9.266-36.701-24.786-47.539l-2.396-1.673c3.777-4.063 6.094-9.501 6.094-15.473v-23.074c0-12.543-10.205-22.748-22.748-22.748h-46.981c-4.143 0-7.5 3.357-7.5 7.5s3.357 7.5 7.5 7.5h46.981c4.272 0 7.748 3.476 7.748 7.748v23.074c0 4.272-3.476 7.748-7.748 7.748h-94.363c-4.272 0-7.748-3.476-7.748-7.748v-23.074c0-4.272 3.476-7.748 7.748-7.748h15.42c4.143 0 7.5-3.357 7.5-7.5s-3.357-7.5-7.5-7.5h-15.42c-12.543 0-22.748 10.205-22.748 22.748v23.074c0 6.055 2.383 11.561 6.254 15.641l-2.156 1.506c-15.52 10.838-24.786 28.609-24.786 47.539v114.443c0 21.781 17.72 39.501 39.5 39.501h102.635c21.781 0 39.501-17.72 39.501-39.501v-20.996c0-4.143-3.357-7.5-7.5-7.5s-7.5 3.357-7.5 7.5v20.996c0 13.51-10.991 24.501-24.501 24.501h-102.636c-13.51 0-24.5-10.991-24.5-24.501v-114.445c0-14.033 6.869-27.207 18.374-35.24l9.608-6.709c.152.003 95.38 0 95.659-.01l9.622 6.719c11.505 8.033 18.374 21.208 18.374 35.24v61.485c-.001 4.143 3.356 7.501 7.499 7.501z"/><path d="m275.911 378.358c-7.88 0-14.29 6.41-14.29 14.29v54.41c0 7.88 6.41 14.29 14.29 14.29h83.633c7.88 0 14.29-6.41 14.29-14.29v-54.41c0-7.88-6.41-14.29-14.29-14.29zm82.923 67.991h-82.213v-52.99h82.213z"/><path d="m223.353 276.624c4.142 0 7.5-3.357 7.5-7.5s-3.358-7.5-7.5-7.5h-77.143v-32.842c0-4.143-3.358-7.5-7.5-7.5s-7.5 3.357-7.5 7.5v160.705h-7.514c-11.1 0-20.129 9.03-20.129 20.13v12.503c0 11.1 9.03 20.13 20.129 20.13h55.82v23.198h-34.781c-9.832 0-17.831 7.999-17.831 17.831v11.202c0 9.832 7.999 17.831 17.831 17.831h68.792c4.142 0 7.5-3.357 7.5-7.5s-3.358-7.5-7.5-7.5h-68.792c-1.561 0-2.831-1.27-2.831-2.831v-11.202c0-1.562 1.27-2.831 2.831-2.831h59.878c4.142 0 7.5-3.357 7.5-7.5s-3.358-7.5-7.5-7.5h-10.097v-23.198h10.094c4.142 0 7.5-3.357 7.5-7.5s-3.358-7.5-7.5-7.5h-80.914c-2.828 0-5.129-2.301-5.129-5.13v-12.503c0-2.829 2.301-5.13 5.129-5.13h80.914c4.142 0 7.5-3.357 7.5-7.5s-3.358-7.5-7.5-7.5h-58.4v-30.051h58.399c4.142 0 7.5-3.357 7.5-7.5s-3.358-7.5-7.5-7.5h-58.399v-67.813h77.143z"/></g></g></svg>